<?xml version="1.0" standalone="no"?>
<!DOCTYPE svg PUBLIC "-//W3C//DTD SVG 20010904//EN"
 "http://www.w3.org/TR/2001/REC-SVG-20010904/DTD/svg10.dtd">
<svg version="1.0" xmlns="http://www.w3.org/2000/svg"
 width="700.000000pt" height="700.000000pt" viewBox="0 0 700.000000 700.000000"
 preserveAspectRatio="xMidYMid meet">
<metadata>
Created by potrace 1.11, written by Peter Selinger 2001-2013
</metadata>
<g transform="translate(0.000000,700.000000) scale(0.100000,-0.100000)"
fill="#000000" stroke="none">
<path d="M3215 6989 c-1004 -86 -1899 -579 -2513 -1387 -560 -734 -803 -1702
-661 -2627 11 -71 23 -146 28 -165 7 -32 8 -29 15 35 3 39 13 122 22 185 109
825 562 1344 1248 1430 121 16 392 7 491 -15 169 -37 325 -108 433 -195 l62
-50 0 695 c0 430 -4 695 -9 695 -22 0 -269 -20 -303 -25 l-38 -5 0 55 c0 30 3
55 8 55 4 0 304 77 667 170 612 157 661 168 677 153 17 -15 18 -120 18 -2281
l0 -2264 43 5 c23 4 83 9 132 12 50 3 109 8 133 11 l42 5 0 -53 0 -53 -649
-163 c-534 -135 -653 -162 -670 -153 -21 12 -21 15 -21 452 0 436 0 440 -20
437 -15 -2 -32 -29 -65 -103 -189 -421 -452 -670 -810 -768 -69 -19 -106 -22
-277 -22 l-197 0 62 -63 c285 -290 729 -580 1135 -740 443 -175 820 -246 1302
-246 402 0 720 48 1077 164 707 229 1338 692 1771 1297 349 488 560 1043 634
1668 17 144 17 586 0 730 -53 449 -168 837 -360 1217 -42 83 -82 153 -88 155
-7 2 -15 -12 -19 -34 -25 -133 -155 -258 -306 -292 -106 -25 -259 -7 -351 40
-69 35 -154 124 -193 202 -19 38 -35 77 -35 86 0 9 29 32 70 55 223 125 330
379 235 555 -63 114 -195 148 -353 89 -71 -27 -157 -111 -204 -203 -102 -196
-138 -472 -138 -1067 l0 -288 245 0 245 0 0 -70 0 -70 -245 0 -245 0 0 -1444
c0 -1367 1 -1445 18 -1450 9 -2 119 -26 245 -52 l227 -48 0 -53 0 -53 -925 0
-925 0 0 53 0 54 173 50 172 50 3 1447 2 1446 -175 0 -175 0 0 70 0 70 175 0
175 0 0 128 c0 339 66 664 180 894 182 363 465 579 880 670 92 20 132 23 333
23 l228 0 -43 38 c-647 564 -1475 872 -2328 866 -91 -1 -210 -6 -265 -10z"/>
<path d="M1668 4161 c-249 -82 -398 -324 -473 -766 -34 -204 -45 -379 -45
-700 -1 -536 51 -820 179 -990 146 -193 462 -192 672 2 113 105 220 294 298
528 l41 120 0 811 0 812 -37 32 c-61 54 -141 101 -227 133 -73 27 -95 31 -216
34 -112 2 -145 0 -192 -16z"/>
</g>
</svg>
